<?xml version="1.0" standalone="no"?>
<!DOCTYPE svg PUBLIC "-//W3C//DTD SVG 20010904//EN"
 "http://www.w3.org/TR/2001/REC-SVG-20010904/DTD/svg10.dtd">
<svg version="1.0" xmlns="http://www.w3.org/2000/svg"
 width="512.000000pt" height="512.000000pt" viewBox="0 0 512.000000 512.000000"
 preserveAspectRatio="xMidYMid meet">
<metadata>
Created by potrace 1.14, written by Peter Selinger 2001-2017
</metadata>
<g transform="translate(0.000000,512.000000) scale(0.100000,-0.100000)"
fill="#000000" stroke="none">
<path d="M2387 4923 c-4 -3 -17 -7 -29 -9 -36 -3 -68 -16 -68 -25 0 -5 -3 -8
-7 -7 -33 7 -203 -128 -203 -161 0 -6 -4 -11 -8 -11 -12 0 -57 -91 -56 -112 1
-10 -3 -18 -7 -18 -5 0 -9 -13 -9 -30 0 -33 2 -32 -85 -31 -78 2 -22 2 -653 0
-315 -1 -555 -5 -558 -10 -3 -5 -9 -7 -13 -4 -5 2 -16 -4 -26 -15 -10 -11 -15
-20 -10 -20 4 0 2 -7 -5 -15 -9 -11 -12 -74 -12 -234 0 -121 3 -224 6 -230 4
-6 3 -11 -3 -11 -6 0 -6 -11 -1 -30 5 -17 5 -30 0 -30 -5 0 -7 -6 -4 -13 8
-22 11 -86 3 -98 -4 -7 -3 -25 1 -40 5 -16 5 -31 0 -34 -4 -3 -4 -20 0 -39 4
-19 4 -40 0 -46 -4 -7 -4 -26 0 -41 5 -16 5 -31 0 -34 -4 -3 -4 -20 0 -39 4
-19 4 -40 0 -46 -4 -7 -4 -26 0 -41 5 -16 5 -31 0 -34 -4 -3 -4 -20 0 -39 4
-19 4 -40 0 -46 -4 -7 -4 -25 0 -41 5 -15 5 -30 2 -34 -3 -3 -5 -24 -3 -45 2
-34 -1 -41 -21 -49 -13 -5 -27 -6 -32 -3 -5 2 -28 4 -52 4 -24 -1 -60 -1 -79
-1 -43 0 -91 -1 -107 -2 -7 0 -42 0 -76 1 -35 1 -66 -1 -69 -4 -3 -3 -14 -1
-23 4 -13 7 -20 5 -24 -7 -4 -9 -9 -13 -12 -10 -3 3 -15 -4 -27 -16 -22 -22
-22 -22 -22 -567 l0 -545 29 -29 30 -29 240 -1 240 -1 7 -26 c3 -15 3 -32 -1
-39 -4 -7 -4 -26 0 -41 5 -16 5 -31 0 -34 -4 -3 -4 -20 0 -39 4 -19 4 -40 0
-46 -4 -7 -4 -26 0 -41 5 -16 5 -31 0 -34 -4 -3 -4 -20 0 -39 4 -19 4 -40 0
-46 -4 -7 -4 -26 0 -41 5 -16 5 -31 0 -34 -4 -3 -4 -20 0 -39 4 -19 4 -40 0
-46 -4 -7 -4 -25 0 -41 5 -15 6 -30 3 -33 -7 -7 -7 -115 0 -122 3 -4 2 -17 -3
-30 -6 -14 -6 -26 0 -29 6 -3 6 -15 0 -30 -6 -15 -6 -27 0 -30 6 -3 6 -15 0
-30 -6 -15 -6 -27 0 -30 6 -3 6 -15 0 -30 -6 -15 -6 -27 0 -30 6 -3 6 -15 0
-30 -6 -15 -6 -27 0 -30 6 -3 6 -15 0 -30 -6 -15 -6 -27 0 -30 6 -3 6 -15 0
-30 -6 -15 -6 -27 0 -30 6 -3 6 -15 0 -30 -6 -15 -6 -27 0 -30 6 -3 6 -15 0
-30 -6 -15 -6 -27 1 -30 5 -4 7 -10 4 -15 -3 -5 3 -26 14 -47 11 -21 20 -34
21 -29 0 5 7 3 15 -4 13 -10 152 -13 663 -14 610 -1 647 -2 644 -18 -2 -10 2
-18 8 -18 6 0 10 -6 9 -12 -2 -21 13 -58 23 -58 6 0 8 -6 5 -14 -3 -8 1 -17 9
-20 9 -3 13 -10 10 -14 -6 -9 127 -142 142 -142 5 0 17 -9 27 -20 10 -11 22
-17 26 -14 5 3 9 0 9 -6 0 -6 4 -9 9 -6 5 3 14 0 20 -8 7 -8 20 -13 29 -11 9
1 19 -2 22 -6 4 -5 27 -9 53 -10 26 -1 47 -5 47 -9 0 -4 25 -7 55 -7 30 0 55
4 55 8 0 4 21 10 48 13 71 8 72 9 72 18 0 5 8 8 17 6 10 -2 26 5 35 14 10 10
28 18 40 18 12 0 19 3 15 6 -7 8 16 33 25 28 11 -7 90 75 83 86 -3 6 0 10 7
10 18 0 50 38 43 50 -4 6 -1 10 5 10 6 0 9 4 6 9 -3 5 1 14 9 21 8 7 12 16 10
21 -3 4 -1 16 4 26 5 10 12 25 14 34 5 14 70 16 654 15 356 -1 665 2 686 7 47
9 67 27 67 60 0 13 3 27 8 31 4 4 7 296 7 649 l0 642 210 2 c116 1 229 2 252
2 33 1 43 5 48 21 4 11 11 17 17 14 7 -5 9 -2 5 8 -3 9 -1 20 5 26 11 11 16
88 5 98 -3 3 -2 17 3 30 5 13 6 26 1 28 -4 3 -5 25 -2 48 4 24 4 57 1 73 -4
17 -3 40 1 52 5 12 4 25 -1 28 -6 3 -6 15 0 30 6 15 6 27 0 30 -6 3 -6 15 0
30 5 13 6 27 1 29 -4 3 -5 25 -2 48 4 24 4 57 1 73 -4 17 -3 40 1 52 5 12 4
25 -1 28 -6 3 -6 15 0 30 6 15 6 27 0 30 -6 3 -6 15 0 30 6 15 6 27 -1 30 -5
4 -7 11 -4 16 11 17 7 214 -4 242 -6 16 -9 32 -6 37 4 7 -16 20 -35 24 -3 1
-10 5 -17 9 -7 4 -34 7 -60 7 -26 0 -59 0 -73 1 -14 0 -37 1 -52 0 -16 0 -36
-1 -45 -1 -10 -1 -70 -1 -133 -1 l-115 1 1 622 c1 541 -1 628 -14 661 -9 20
-19 37 -24 37 -4 0 -8 6 -8 14 0 22 -36 25 -320 26 -328 1 -252 1 -672 -1
-389 -2 -388 -2 -388 55 0 14 -5 26 -11 26 -5 0 -7 4 -4 10 10 17 -24 75 -81
136 -17 18 -30 35 -29 36 2 2 -3 9 -11 16 -8 7 -14 10 -14 6 0 -4 -9 5 -21 20
-11 14 -26 26 -33 26 -7 0 -21 9 -31 20 -9 10 -20 19 -24 18 -3 -1 -14 2 -23
5 -10 4 -26 10 -35 14 -10 3 -23 5 -30 4 -6 -1 -14 3 -18 9 -7 11 -227 14
-238 3z m173 -182 c0 -10 3 -11 13 -3 9 8 20 7 39 -2 15 -8 29 -12 32 -9 2 3
11 -4 18 -16 7 -12 18 -21 25 -21 19 0 85 -68 78 -80 -3 -5 -2 -10 4 -10 13 0
52 -80 45 -91 -3 -5 0 -17 5 -28 17 -30 20 -101 5 -101 -8 0 -11 -9 -8 -24 2
-14 -2 -30 -9 -38 -8 -7 -12 -18 -10 -25 4 -12 -117 -147 -125 -139 -3 3 -17
-3 -31 -13 -14 -10 -34 -17 -44 -15 -10 1 -20 -3 -23 -10 -5 -12 -107 -13
-159 -1 -11 2 -23 3 -26 2 -3 -1 -13 6 -23 16 -10 9 -22 15 -27 12 -5 -4 -9
-1 -9 5 0 6 -8 14 -17 17 -25 9 -103 94 -103 112 0 4 -7 23 -16 40 -21 42 -27
201 -8 201 8 0 11 6 8 15 -4 8 -1 22 6 30 7 8 9 15 6 15 -4 0 7 14 24 30 17
17 29 34 26 39 -5 8 22 25 32 21 2 -1 11 7 20 17 26 27 80 53 113 53 16 0 29
4 29 8 0 5 25 8 55 8 40 -1 55 -5 55 -15z m-554 -445 c4 -17 8 -37 8 -45 1 -8
6 -16 13 -18 7 -3 9 -11 6 -19 -3 -8 -1 -14 5 -14 8 0 19 -24 19 -40 -1 -9
163 -165 173 -165 5 0 20 -9 32 -20 13 -10 24 -18 26 -17 3 3 55 -10 67 -17 6
-3 19 -7 30 -7 11 -1 27 -2 35 -3 13 -1 15 -49 14 -377 -1 -241 -5 -379 -12
-386 -5 -5 -26 -9 -46 -9 -37 2 -86 2 -108 0 -17 -1 -117 0 -148 2 -22 1 -55
0 -92 -1 -7 -1 -28 0 -46 1 -20 1 -38 -4 -43 -12 -5 -8 -9 -11 -9 -6 0 4 -10
-3 -21 -14 -22 -22 -22 -24 -23 -558 -1 -574 0 -591 48 -606 12 -3 128 -7 260
-8 l239 -2 -1 -365 c0 -201 -1 -375 -1 -387 -1 -19 -6 -21 -31 -18 -16 2 -30
-1 -30 -6 0 -5 -11 -9 -25 -9 -14 0 -25 -5 -25 -10 0 -6 -3 -9 -7 -8 -10 2
-86 -34 -94 -45 -3 -5 -9 -8 -13 -8 -16 1 -36 -13 -42 -31 -3 -11 -8 -18 -10
-15 -8 8 -81 -68 -76 -80 2 -7 -1 -13 -6 -13 -6 0 -19 -17 -29 -37 -9 -21 -19
-40 -22 -43 -4 -3 -7 -14 -9 -25 -6 -38 -20 -90 -21 -80 -1 6 -5 4 -10 -4 -8
-12 -99 -14 -568 -13 -307 0 -563 1 -569 1 -8 1 -11 169 -11 600 l0 599 236 0
c130 0 244 3 253 7 9 4 25 21 35 38 18 30 19 65 18 557 -2 568 -3 586 -51 579
-4 0 -10 4 -13 10 -6 9 -36 13 -81 10 -19 -1 -118 0 -150 2 -14 0 -38 0 -55 0
-31 -1 -80 0 -150 2 l-40 2 -1 575 c-1 316 0 578 2 582 3 3 265 6 583 6 l579
0 8 -32z m2215 21 c1 -7 2 -269 3 -584 l1 -572 -65 0 c-36 0 -69 0 -75 -1 -5
-1 -14 -1 -20 0 -12 2 -126 2 -140 -1 -5 -1 -14 0 -20 1 -5 1 -45 2 -89 2 -74
-1 -80 -3 -107 -32 -16 -16 -29 -38 -30 -47 -2 -58 0 -124 5 -132 4 -5 2 -12
-3 -16 -6 -3 -7 -15 -1 -29 4 -12 4 -29 0 -36 -5 -8 -5 -21 0 -30 5 -9 5 -22
0 -30 -5 -8 -6 -18 -3 -23 7 -12 8 -96 0 -103 -3 -3 -1 -19 3 -35 5 -16 5 -31
0 -34 -4 -3 -4 -20 0 -39 4 -19 4 -40 0 -46 -4 -7 -4 -25 0 -41 5 -15 6 -30 3
-33 -8 -7 -6 -133 1 -145 4 -5 2 -12 -3 -16 -6 -3 -7 -15 -1 -29 4 -12 4 -29
0 -36 -5 -8 -5 -21 0 -30 5 -9 5 -22 0 -30 -5 -8 -6 -18 -3 -23 9 -14 9 -68 1
-93 -4 -13 -1 -30 8 -43 8 -11 12 -21 7 -21 -4 -1 5 -8 21 -17 25 -13 69 -15
270 -15 l241 0 0 -593 c0 -326 -3 -597 -7 -601 -6 -5 -1121 -10 -1195 -5 -7 1
-13 10 -13 20 0 11 -4 22 -9 25 -9 6 -27 83 -23 99 2 5 -2 6 -8 2 -5 -3 -10 1
-10 9 0 9 -4 16 -9 16 -5 0 -14 13 -21 29 -6 16 -18 32 -27 35 -8 3 -12 10 -9
14 3 5 -10 24 -29 42 -19 19 -35 30 -35 24 0 -5 -4 -4 -8 2 -14 20 -78 63
-104 69 -16 4 -28 11 -28 16 0 5 -15 9 -33 9 l-32 0 0 393 0 392 241 1 c219 1
243 3 262 20 12 10 22 24 22 31 0 7 4 13 9 13 5 0 9 229 9 540 0 313 -4 540
-9 540 -5 0 -9 5 -9 11 0 13 -21 33 -40 37 -8 2 -17 7 -20 10 -4 6 -28 6 -102
1 -17 -1 -117 0 -148 2 -14 0 -37 1 -52 0 -50 -2 -62 -1 -113 1 l-50 3 -1 375
c0 206 4 383 8 393 5 9 20 17 33 17 14 0 25 5 25 11 0 6 7 9 15 5 9 -3 15 0
15 8 0 10 7 12 22 8 14 -3 19 -2 14 6 -5 8 0 12 14 12 11 0 23 7 26 15 4 8 11
15 17 15 13 0 97 80 97 92 0 4 8 17 18 27 33 37 41 49 35 54 -3 3 -1 12 3 19
5 7 9 15 10 18 5 29 19 67 28 77 15 17 1215 17 1217 0z m-3039 -1359 c8 -24 2
-807 -6 -815 -4 -4 -205 -8 -447 -9 l-439 0 -1 25 c0 38 -1 751 0 784 l1 27
444 0 c346 0 445 -3 448 -12z m1789 5 c1 -5 2 -189 3 -410 1 -351 -1 -404 -14
-410 -16 -7 -882 -12 -875 -4 3 2 -1 11 -8 19 -15 19 -19 779 -4 800 7 9 110
12 453 12 244 0 445 -3 445 -7z m1796 -400 c0 -280 -4 -411 -11 -418 -7 -7
-155 -11 -448 -11 -430 0 -437 0 -445 21 -7 15 -11 799 -4 813 0 1 205 2 454
2 l454 0 0 -407z m-2203 -1562 c4 -5 17 -8 31 -6 14 1 25 -1 25 -5 0 -4 8 -10
18 -14 26 -9 54 -28 89 -62 17 -18 34 -29 37 -26 3 3 6 -4 6 -15 0 -11 7 -26
15 -33 8 -7 15 -21 15 -31 0 -11 4 -19 9 -19 5 0 9 -10 9 -22 0 -13 5 -42 10
-64 6 -29 5 -48 -3 -64 -7 -12 -11 -33 -9 -46 1 -13 -1 -24 -4 -24 -4 0 -13
-15 -21 -32 -20 -45 -101 -121 -153 -142 -24 -10 -50 -21 -58 -25 -21 -10
-148 -6 -186 7 -43 14 -116 61 -134 86 -8 12 -24 31 -36 43 -12 12 -20 24 -18
26 2 2 -3 21 -12 43 -18 41 -26 181 -12 190 4 3 8 16 8 30 0 13 5 24 10 24 5
0 9 3 8 8 -3 13 14 42 22 37 7 -4 20 16 24 35 4 17 20 30 37 30 11 0 17 4 14
10 -3 5 6 12 20 16 14 3 25 10 25 14 0 8 58 26 73 22 4 -1 7 3 7 8 0 13 127
13 134 1z"/>
</g>
</svg>
